<?xml version="1.0" standalone="no"?>
<!DOCTYPE svg PUBLIC "-//W3C//DTD SVG 20010904//EN"
 "http://www.w3.org/TR/2001/REC-SVG-20010904/DTD/svg10.dtd">
<svg version="1.0" xmlns="http://www.w3.org/2000/svg"
 width="1170.000000pt" height="977.000000pt" viewBox="0 0 1170.000000 977.000000"
 preserveAspectRatio="xMidYMid meet">

<g transform="translate(0.000000,977.000000) scale(0.100000,-0.100000)"
fill="#000000" stroke="none">
<path d="M8952 7552 c-163 -59 -242 -226 -187 -393 25 -75 110 -158 184 -182
114 -36 219 -14 304 63 201 184 85 509 -188 527 -42 2 -76 -2 -113 -15z m201
-103 c37 -20 97 -90 97 -116 0 -9 -15 -13 -50 -13 -27 0 -50 5 -50 10 0 18
-64 50 -98 50 -101 0 -155 -113 -91 -194 42 -54 139 -52 181 4 18 25 29 30 65
30 50 0 55 -15 24 -66 -41 -67 -131 -111 -204 -100 -191 29 -255 271 -100 380
70 49 147 54 226 15z"/>
<path d="M3803 6069 l-852 -1457 670 -1179 c369 -648 676 -1184 683 -1191 9
-9 290 -12 1363 -10 l1351 3 -965 565 c-531 311 -986 577 -1012 592 l-46 27
-339 -579 c-187 -319 -341 -578 -343 -577 -2 2 76 1176 172 2608 97 1432 174
2615 173 2629 -2 19 -224 -352 -855 -1431z"/>
<path d="M4695 7511 c22 -14 3601 -2108 4013 -2349 l43 -25 -33 60 c-18 32
-323 568 -677 1189 l-644 1131 -795 6 c-438 4 -1052 7 -1366 7 -564 0 -571 -1
-541 -19z"/>
</g>
</svg>
