<?xml version="1.0" standalone="no"?>
<!DOCTYPE svg PUBLIC "-//W3C//DTD SVG 20010904//EN"
 "http://www.w3.org/TR/2001/REC-SVG-20010904/DTD/svg10.dtd">
<svg version="1.0" xmlns="http://www.w3.org/2000/svg"
 width="1024.000000pt" height="1024.000000pt" viewBox="0 0 1024.000000 1024.000000"
 preserveAspectRatio="xMidYMid meet">

<g transform="translate(0.000000,1024.000000) scale(0.100000,-0.100000)"
fill="#000000" stroke="none">
<path d="M2210 8488 c-97 -14 -236 -64 -317 -114 -97 -61 -164 -137 -218 -248
-82 -173 -78 -106 -85 -1226 -5 -726 -10 -1007 -18 -1038 -31 -110 -101 -205
-184 -248 -18 -9 -63 -19 -100 -22 l-68 -5 0 -187 0 -187 58 -7 c141 -16 250
-119 294 -278 8 -31 13 -313 18 -1033 6 -874 9 -998 23 -1058 84 -343 320
-521 725 -544 l102 -6 0 231 0 231 -47 6 c-163 23 -243 80 -285 205 -9 26 -14
289 -18 985 -6 937 -6 951 -28 1028 -48 171 -128 289 -254 372 -42 27 -77 52
-77 55 -1 3 23 18 53 33 121 63 231 215 278 384 22 77 22 90 28 1038 l5 960
23 57 c25 62 90 130 149 154 20 9 67 18 104 21 l69 6 0 223 0 224 -82 -1 c-46
-1 -112 -6 -148 -11z"/>
<path d="M7810 8280 c0 -121 1 -220 3 -220 1 -1 20 -3 42 -6 158 -19 249 -81
287 -193 9 -27 14 -283 18 -1006 l5 -970 28 -90 c50 -160 141 -281 270 -358
l57 -35 -57 -32 c-87 -49 -183 -151 -226 -240 -75 -155 -71 -84 -77 -1170 -4
-669 -9 -985 -17 -1006 -45 -125 -120 -179 -280 -199 l-53 -7 0 -229 0 -229
48 0 c207 0 427 66 555 166 99 77 178 210 219 367 21 80 22 101 28 1067 6 874
9 992 23 1043 48 165 145 257 290 273 l57 7 0 187 0 187 -69 5 c-135 10 -229
98 -279 263 -14 43 -17 189 -22 1045 -6 986 -6 996 -28 1075 -36 132 -95 240
-171 315 -133 131 -350 210 -578 210 l-73 0 0 -220z"/>
<path d="M4660 7881 c-96 -20 -189 -105 -216 -197 -13 -44 -15 -122 -12 -501
l3 -448 27 -50 c33 -62 80 -108 138 -134 38 -17 66 -21 183 -21 l137 0 0 -273
c0 -150 4 -288 10 -307 9 -31 7 -37 -23 -68 -46 -48 -139 -110 -209 -138 -67
-28 -153 -48 -421 -99 -104 -20 -225 -47 -270 -61 -238 -75 -402 -206 -498
-399 -53 -108 -69 -189 -69 -366 l0 -146 -128 -5 c-112 -4 -135 -8 -187 -32
-78 -35 -121 -77 -156 -151 l-29 -60 0 -426 0 -426 31 -61 c35 -72 94 -124
169 -153 47 -18 80 -19 485 -19 405 0 438 1 485 19 78 30 134 81 172 159 l33
67 0 420 c0 408 -1 421 -21 466 -64 138 -194 204 -393 198 l-76 -2 0 159 c1
145 3 164 24 211 38 85 133 161 257 203 32 12 181 46 329 76 149 30 303 66
343 80 99 33 215 93 287 147 l60 46 25 -24 c34 -31 155 -108 211 -133 129 -59
210 -81 484 -132 121 -22 254 -50 295 -61 160 -44 275 -130 299 -224 6 -24 11
-113 11 -197 l0 -153 -76 3 c-155 7 -270 -32 -344 -116 -69 -78 -70 -85 -70
-548 0 -390 1 -416 20 -467 24 -65 91 -136 158 -169 l47 -23 460 0 460 0 43
23 c66 35 119 88 149 150 l28 57 0 425 c0 414 -1 426 -22 472 -32 70 -94 131
-166 164 -57 26 -72 28 -184 28 l-123 1 0 145 c0 221 -22 319 -96 442 -48 78
-152 182 -227 227 -120 71 -212 96 -650 181 -115 22 -238 52 -275 66 -83 33
-185 99 -235 151 -34 36 -37 42 -27 67 6 17 10 138 10 307 l0 279 138 0 c128
0 142 2 190 26 59 29 106 79 136 143 20 45 21 59 21 511 0 463 0 465 -23 511
-29 59 -82 112 -141 141 -46 23 -50 23 -501 25 -250 0 -471 -2 -490 -6z m740
-676 l0 -285 -277 2 -278 3 -3 283 -2 282 280 0 280 0 0 -285z"/>
</g>
</svg>
