<?xml version="1.0" standalone="no"?>
<!DOCTYPE svg PUBLIC "-//W3C//DTD SVG 20010904//EN"
 "http://www.w3.org/TR/2001/REC-SVG-20010904/DTD/svg10.dtd">
<svg version="1.0" xmlns="http://www.w3.org/2000/svg"
 width="512.000000pt" height="512.000000pt" viewBox="0 0 512.000000 512.000000"
 preserveAspectRatio="xMidYMid meet">

<g transform="translate(0.000000,512.000000) scale(0.100000,-0.100000)"
fill="#000000" stroke="none">
<path d="M2233 4786 c-202 -39 -355 -119 -506 -265 -126 -122 -212 -268 -259
-442 -30 -111 -33 -357 -5 -459 50 -183 119 -310 236 -434 59 -62 147 -136
162 -136 5 0 9 181 9 438 0 332 3 449 14 487 49 184 198 332 383 380 74 19
193 19 268 0 186 -49 346 -216 384 -403 7 -33 11 -210 11 -477 0 -234 3 -425
6 -425 16 0 107 76 160 133 112 119 197 275 236 433 31 126 31 323 -1 449 -27
109 -101 268 -165 352 -131 173 -335 306 -547 358 -90 22 -296 28 -386 11z"/>
<path d="M2304 4146 c-93 -30 -170 -103 -205 -196 -18 -49 -19 -89 -19 -1225
0 -646 -1 -1175 -3 -1175 -1 0 -174 36 -385 80 -211 44 -393 80 -406 80 -12 0
-45 -7 -72 -17 -40 -13 -69 -36 -152 -122 l-103 -105 548 -546 c429 -428 559
-552 598 -571 l50 -24 805 0 805 0 57 28 c31 15 71 44 89 64 68 78 72 95 164
743 56 394 84 619 81 645 -10 61 -50 139 -94 182 -30 28 -178 107 -571 303
l-532 265 -119 4 -119 3 -3 677 -3 676 -26 56 c-52 111 -150 178 -273 185 -44
2 -87 -1 -112 -10z"/>
</g>
</svg>
